<svg width="100" height="100" viewBox="0 0 100 100" fill="none" xmlns="http://www.w3.org/2000/svg">
                <g id="amp" clip-path="url(#clip0_790_7285)">
                  <g id="Group">
                    <g id="Clip path group">
                      <mask
                        id="mask0_790_7285"
                        style="mask-type: luminance"
                        maskUnits="userSpaceOnUse"
                        x="0"
                        y="0"
                        width="100"
                        height="100"
                      >
                        <g id="SVGID_00000065779402033801370250000016468079497314035082_">
                          <path id="Vector" d="M100 0H0V100H100V0Z" fill="white" />
                        </g>
                      </mask>
                      <g mask="url(#mask0_790_7285)">
                        <g id="Group_2">
                          <path
                            id="Vector_2"
                            d="M50 0C77.6 0 100 22.4 100 50C100 77.6 77.6 100 50 100C22.4 100 0 77.6 0 50C0 22.4 22.4 0 50 0ZM46.2 80.3L67.2 45.4C67.5 45.1 67.6 44.7 67.6 44.3C67.6 43.8 67.4 43.3 67 43C66.6 42.6 66.2 42.4 65.7 42.4H53.8L57.6 19.6H53.7L32.8 54.5C32.8 54.5 32.4 55.3 32.4 55.7C32.4 56.7 33.2 57.6 34.3 57.6H46.1L42.3 80.3H46.2Z"
                            fill="#505050"
                          />
                        </g>
                      </g>
                    </g>
                  </g>
                </g>
                <defs>
                  <clipPath id="clip0_790_7285">
                    <rect width="100" height="100" fill="white" />
                  </clipPath>
                </defs>
              </svg>